<svg xmlns="http://www.w3.org/2000/svg" viewBox="0 0 280 60" fill="none">
  <!-- Building icon -->
  <rect x="4" y="16" width="18" height="28" rx="2" fill="#2563eb"/>
  <rect x="24" y="8" width="18" height="36" rx="2" fill="#1d4ed8"/>
  <rect x="9" y="22" width="4" height="4" rx="0.5" fill="#ffffff"/>
  <rect x="15" y="22" width="4" height="4" rx="0.5" fill="#ffffff"/>
  <rect x="9" y="30" width="4" height="4" rx="0.5" fill="#ffffff"/>
  <rect x="15" y="30" width="4" height="4" rx="0.5" fill="#ffffff"/>
  <rect x="29" y="14" width="4" height="4" rx="0.5" fill="#ffffff"/>
  <rect x="35" y="14" width="4" height="4" rx="0.5" fill="#ffffff"/>
  <rect x="29" y="22" width="4" height="4" rx="0.5" fill="#ffffff"/>
  <rect x="35" y="22" width="4" height="4" rx="0.5" fill="#ffffff"/>
  <rect x="29" y="30" width="4" height="4" rx="0.5" fill="#ffffff"/>
  <rect x="35" y="30" width="4" height="4" rx="0.5" fill="#ffffff"/>
  <!-- Door -->
  <rect x="13" y="36" width="6" height="8" rx="1" fill="#93c5fd"/>
  <rect x="31" y="36" width="6" height="8" rx="1" fill="#93c5fd"/>
  <!-- Text -->
  <text x="54" y="37" font-family="Arial, Helvetica, sans-serif" font-size="30" font-weight="300" fill="#64748b">My</text>
  <text x="94" y="37" font-family="Arial, Helvetica, sans-serif" font-size="30" font-weight="800" fill="#1e293b">Gestia</text>
  <!-- Tagline dot -->
  <circle cx="206" cy="35" r="3.5" fill="#2563eb"/>
</svg>
